<?xml version="1.0" encoding="UTF-8"?>
<svg id="Layer_3" data-name="Layer 3" xmlns="http://www.w3.org/2000/svg" xmlns:xlink="http://www.w3.org/1999/xlink" viewBox="0 0 655.68 500">
  <defs>
    <style>
      .cls-1 {
        fill: url(#radial-gradient-2);
      }

      .cls-2 {
        fill: url(#radial-gradient);
      }

      .cls-3 {
        fill: #fff;
      }
    </style>
    <radialGradient id="radial-gradient" cx="177.9" cy="47.58" fx="177.9" fy="47.58" r="59.03" gradientTransform="translate(577.22 2031.89) rotate(-90) scale(8.39 -7.57)" gradientUnits="userSpaceOnUse">
      <stop offset="0" stop-color="#fd5"/>
      <stop offset=".1" stop-color="#fd5"/>
      <stop offset=".5" stop-color="#ff543e"/>
      <stop offset="1" stop-color="#c837ab"/>
    </radialGradient>
    <radialGradient id="radial-gradient-2" cx="717.13" cy="203.57" fx="717.13" fy="203.57" r="59.03" gradientTransform="translate(-3499.04 -1984.12) rotate(79.02) scale(3.75 -15.02) skewX(-2.75)" gradientUnits="userSpaceOnUse">
      <stop offset="0" stop-color="#3771c8"/>
      <stop offset=".13" stop-color="#3771c8"/>
      <stop offset="1" stop-color="#60f" stop-opacity="0"/>
    </radialGradient>
  </defs>
  <path class="cls-2" d="M330.69,0c-101.21,0-130.81.11-136.56.6-20.77,1.78-33.69,5.15-47.77,12.38-10.85,5.56-19.41,12-27.85,21.03-15.38,16.47-24.7,36.73-28.08,60.82-1.64,11.69-2.12,14.08-2.21,73.8-.04,19.91,0,46.11,0,81.25,0,104.31.11,134.81.6,140.74,1.68,20.85,4.85,33.96,11.56,48.31,12.83,27.46,37.33,48.08,66.19,55.77,9.99,2.65,21.03,4.12,35.2,4.81,6,.27,67.19.46,128.42.46s122.46-.08,128.31-.38c16.41-.8,25.93-2.12,36.47-4.92,29.05-7.73,53.1-28.04,66.19-55.89,6.58-14,9.92-27.62,11.43-47.37.33-4.31.47-72.99.47-141.58s-.15-137.16-.48-141.47c-1.53-20.08-4.87-33.58-11.66-47.85-5.57-11.68-11.76-20.4-20.75-29.32-16.04-15.8-35.65-25.42-59.02-28.89-11.32-1.69-13.58-2.19-71.53-2.29h-78.9Z"/>
  <path class="cls-1" d="M330.69.02C229.48.02,199.88.13,194.13.62c-20.77,1.78-33.69,5.15-47.77,12.38-10.85,5.56-19.41,12-27.85,21.03-15.38,16.47-24.7,36.73-28.08,60.82-1.64,11.69-2.12,14.08-2.22,73.8-.04,19.91,0,46.11,0,81.25,0,104.31.11,134.81.6,140.74,1.68,20.85,4.85,33.96,11.56,48.31,12.83,27.46,37.33,48.08,66.19,55.77,9.99,2.65,21.03,4.12,35.2,4.81,6,.27,67.19.46,128.42.46s122.46-.08,128.31-.38c16.41-.8,25.93-2.12,36.47-4.92,29.05-7.73,53.1-28.04,66.19-55.89,6.58-14,9.92-27.62,11.43-47.37.33-4.31.47-72.99.47-141.58s-.15-137.16-.48-141.47c-1.53-20.08-4.87-33.58-11.66-47.85-5.57-11.68-11.76-20.4-20.75-29.32-16.04-15.8-35.65-25.42-59.02-28.89C469.79.63,467.54.12,409.59.02h-78.9Z"/>
  <path class="cls-3" d="M330.63,65.39c-48.61,0-54.71.22-73.8,1.12-19.05.9-32.06,4.01-43.44,8.58-11.77,4.72-21.76,11.02-31.71,21.29-9.96,10.26-16.07,20.56-20.66,32.7-4.44,11.74-7.46,25.16-8.32,44.81-.85,19.69-1.08,25.99-1.08,76.13s.22,56.41,1.08,76.11c.88,19.65,3.89,33.07,8.32,44.81,4.58,12.14,10.69,22.44,20.64,32.71,9.94,10.27,19.93,16.59,31.7,21.31,11.39,4.57,24.4,7.68,43.45,8.58,19.09.9,25.19,1.12,73.79,1.12s54.69-.22,73.79-1.12c19.05-.9,32.08-4.01,43.46-8.58,11.77-4.72,21.74-11.04,31.68-21.31,9.96-10.26,16.07-20.56,20.66-32.7,4.4-11.74,7.42-25.16,8.32-44.81.86-19.69,1.08-25.97,1.08-76.11s-.22-56.43-1.08-76.13c-.89-19.65-3.92-33.07-8.32-44.81-4.59-12.14-10.7-22.44-20.66-32.71-9.96-10.27-19.91-16.58-31.7-21.29-11.41-4.57-24.42-7.68-43.48-8.58-19.09-.9-25.17-1.12-73.79-1.12h.06ZM314.57,98.66c4.77,0,10.08,0,16.06,0,47.79,0,53.45.18,72.33,1.06,17.45.82,26.92,3.83,33.23,6.36,8.35,3.35,14.31,7.35,20.57,13.81,6.26,6.46,10.14,12.62,13.39,21.23,2.45,6.5,5.37,16.27,6.16,34.27.86,19.46,1.04,25.31,1.04,74.58s-.19,55.12-1.04,74.58c-.8,18-3.71,27.77-6.16,34.27-3.24,8.62-7.13,14.75-13.39,21.21-6.26,6.46-12.21,10.46-20.57,13.81-6.3,2.54-15.78,5.54-33.23,6.36-18.87.88-24.54,1.08-72.33,1.08s-53.46-.19-72.33-1.08c-17.45-.83-26.92-3.84-33.24-6.37-8.35-3.35-14.32-7.35-20.58-13.81-6.26-6.46-10.14-12.6-13.39-21.22-2.45-6.5-5.37-16.27-6.16-34.27-.86-19.46-1.03-25.31-1.03-74.61s.17-55.12,1.03-74.58c.8-18,3.71-27.77,6.16-34.28,3.24-8.62,7.13-14.77,13.39-21.23,6.26-6.46,12.23-10.46,20.58-13.82,6.31-2.54,15.78-5.54,33.24-6.37,16.51-.77,22.91-1,56.27-1.04v.05ZM426.17,129.31c-11.86,0-21.48,9.91-21.48,22.15s9.62,22.15,21.48,22.15,21.48-9.92,21.48-22.15-9.62-22.16-21.48-22.16h0ZM330.63,155.2c-50.76,0-91.92,42.45-91.92,94.81s41.16,94.79,91.92,94.79,91.9-42.43,91.9-94.79-41.14-94.81-91.91-94.81h0ZM330.63,188.47c32.95,0,59.66,27.55,59.66,61.54s-26.71,61.54-59.66,61.54-59.66-27.56-59.66-61.54,26.71-61.54,59.66-61.54Z"/>
</svg>