<?xml version="1.0" encoding="UTF-8"?>
<svg id="Layer_2" data-name="Layer 2" xmlns="http://www.w3.org/2000/svg" viewBox="0 0 565 421.84">
  <defs>
    <style>
      .cls-1, .cls-2, .cls-3, .cls-4 {
        stroke: #284139;
        stroke-miterlimit: 10;
      }

      .cls-1, .cls-3 {
        fill: none;
      }

      .cls-1, .cls-4 {
        stroke-width: 2px;
      }

      .cls-5, .cls-6 {
        fill: #284139;
      }

      .cls-6 {
        font-family: Montserrat-Regular, Montserrat;
        font-size: 72px;
      }

      .cls-2, .cls-3 {
        stroke-width: 5px;
      }
    </style>
  </defs>
  <path class="cls-1" d="M142.8,96.5c-1.7-4.23-10.07-9.75-14.48-10.7-3.57-.77-5.5,7.58-5.62,15.4s-1.24,15.81.98,12.92c7.98-10.38,15.59-8.93,19.27-12.78,0,0,.68-2.78-.15-4.84Z"/>
  <path class="cls-1" d="M148.11,96.07s-3.74-10-6.26-12.38-12.7-5.5-12.7-5.5l9.58,9.83,3.71,7.84,2.03,1.47,3.64-1.26Z"/>
  <polygon class="cls-1" points="145.46 86.87 148.11 82.34 150.77 80.12 151.95 87.75 151.79 96.25 148.4 96.21 145.46 86.87"/>
  <path class="cls-1" d="M154.08,101.02s13.45-16.12,19.75-15.73c5.89.36,2.82,30.99,2.82,30.99,0,0-7.26-9.12-10.44-10.96l-12.14-4.3Z"/>
  <polygon class="cls-1" points="151.79 96.25 154.08 100.23 151.95 103.44 143.59 102.89 143.21 97.32 151.79 96.25"/>
  <path class="cls-1" d="M140.36,113.23s-.95-3.19.59-5.69,5.58-4.31,7.16-4.35,5.36,1.41,7.01,3.72c1.92,2.69,1.54,6.32,1.54,6.32"/>
  <circle class="cls-5" cx="137.29" cy="123.25" r="3.4"/>
  <circle class="cls-5" cx="161.04" cy="123.02" r="3.67"/>
  <path class="cls-5" d="M176.7,139.53c-2.32-7.27-5.42-14.45-10.27-20.33-1.64-1.95-4.88-3.76-7.22-1.95-1.16.89-2.12,2.15-3.01,3.43.5-1.49,1.23-2.92,2.35-4.16,1.1-1.37,3.28-1.65,4.89-1.19,7.48,1.61,13.28,17.24,13.26,24.2h0Z"/>
  <path class="cls-5" d="M121.23,137.56c1.62-7.04,4.14-14.39,9.33-19.65,1.12-1.07,2.86-1.8,4.37-1.85,1.54-.14,3.26-.1,4.57.88,1.25,1,1.97,2.35,2.41,3.73-.82-1.18-1.79-2.31-2.94-2.9-1.58-.79-4.04-.24-5.64.4-1.7.99-2.9,2.67-4.01,4.33-2.72,4.07-5.79,10.64-8.09,15.07h0Z"/>
  <path class="cls-5" d="M143.51,131.5c-.24.76.51,2.17,1.54,3.25,1.12,1.18,2.55,2.01,2.55,2.01l2.63-.08s.8-.42,1.69-1.21c1.2-1.07,2.58-2.7,2.4-3.59-.1-.5-.46-1.3-1.19-1.67-1.39-.71-3.64-.76-4.61-.63,0,0-2.25.11-3.73.68-.73.28-1.14.81-1.28,1.23Z"/>
  <g>
    <line x1="148.9" y1="134.45" x2="149.16" y2="148.78"/>
    <path class="cls-5" d="M148.9,134.45c.9,1.09,1.18,2.2,1.06,3.57,0,0,.06,3.58.06,3.58.02,1.18.08,4.23.09,5.37-.29.6-.58,1.2-.97,1.81-.41-.59-.72-1.18-1.03-1.77-.02-1.13-.07-4.21-.09-5.37,0,0-.06-3.58-.06-3.58-.16-1.36.08-2.48.94-3.6h0Z"/>
  </g>
  <path class="cls-1" d="M143,142.3s-.08,5.27,1.39,8.67c1.16,2.69,3.67,3.7,5.22,3.68s4.03-1.64,5.13-4.38c1.34-3.35.79-8.27.79-8.27"/>
  <path class="cls-4" d="M138.34,140.83c0,1.07,3.12.8,4.19.79,1.66-.02,6.48-1.36,6.48-1.36,0,0,3.96,1.26,5.33,1.36s5.43.6,5.43-.77"/>
  <path class="cls-5" d="M123.44,114.72c-.7,3.38-1.88,8.23-2.73,11.42-.47,3.68,1.43,7.58,1.59,11.45.28,4.5-.18,8.86.84,13.05,1.08,2.9,3.59,6.48,4.84,8.68,0,0,3.07,3.56,3.07,3.56,1.06,1.17,2.05,2.37,2.89,3.71,0,0-.24-.18-.24-.18,1.62,1.06,3.23,2.15,4.82,3.27-1.87-.62-3.73-1.25-5.57-1.93-1.26-1.08-2.38-2.28-3.42-3.56,0,0-3.07-3.56-3.07-3.56l-.05-.06c-1.81-3.08-3.92-5.99-5.19-9.35-1.14-4.47-.65-9.18-.93-13.5-.2-3.32-1.58-6.81-1.69-10.26.14-4.71,2.7-8.81,4.84-12.74h0Z"/>
  <path class="cls-5" d="M175.95,115.71c5.82,6.87,3.85,15.62,2.5,23.05-.2,3.54-.35,6.94-1.04,10.47-1,3.48-2.98,6.41-4.67,9.55-1.84,2.71-4.46,6.45-6.25,9.15-2.45,1.36-5.07,2.67-7.59,3.9,2.02-1.84,4.18-3.75,6.29-5.5,0,0-.27.27-.27.27,1.8-2.52,4.33-6.3,6.13-8.89,1.37-2.55,3.52-5.88,4.41-8.92.63-3.25.8-6.78.99-10.12.63-3.78,1.45-7.84,1.5-11.63-.34-3.84-.5-7.66-2-11.34h0Z"/>
  <path class="cls-5" d="M139.5,141.02c-1.23,2.91-2.39,4.23-3.8,6.67-2.68,5.49-2.67,12.52.85,17.67.45,1.19,1.02,2.37,1.67,3.57-1.22-.63-2.3-1.48-3.33-2.44-5.22-7.47-3.98-20.99,4.6-25.47h0Z"/>
  <path class="cls-5" d="M159.77,140.84c2.12,1.9,3.49,4.25,4.47,6.89.77,1.86,1.71,4.21,1.55,6.22,0,0-.02,2.05-.02,2.05l-.05,2.03c0,2.13-.9,4.31-1.75,6.19-1.07,2.62-2.62,4.89-4.84,6.66,0,0,1.21-3.96,1.21-3.96,1.47-2.82,3.24-5.71,3.38-8.93,0,0,.05-2.02.05-2.02l.02-2c.1-2.07-.68-3.57-1.39-5.45-1.18-2.47-2.18-4.91-2.62-7.66h0Z"/>
  <ellipse class="cls-3" cx="148.72" cy="123.64" rx="61.8" ry="57.61"/>
  <line class="cls-2" x1="183.3" y1="171.32" x2="231.18" y2="230.63"/>
  <text class="cls-6" transform="translate(3.42 146.36)"><tspan x="0" y="0">W</tspan></text>
  <text class="cls-6" transform="translate(219.05 146.36)"><tspan x="0" y="0">OFINDER</tspan></text>
</svg>