<?xml version="1.0" encoding="UTF-8"?>
<svg id="Layer_2" xmlns="http://www.w3.org/2000/svg" version="1.1" viewBox="0 0 1071 828.89">
  <!-- Generator: Adobe Illustrator 29.8.3, SVG Export Plug-In . SVG Version: 2.1.1 Build 3)  -->
  <defs>
    <style>
      .st0, .st1, .st2 {
        fill: none;
      }

      .st3 {
        font-family: Montserrat-Regular, Montserrat;
        font-size: 131.89px;
      }

      .st3, .st4 {
        isolation: isolate;
      }

      .st3, .st5 {
        fill: #c15313;
      }

      .st1 {
        stroke-width: 5px;
      }

      .st1, .st2 {
        stroke: #c15313;
        stroke-miterlimit: 10;
      }

      .st2 {
        stroke-width: 2px;
      }
    </style>
  </defs>
  <path class="st2" d="M265.81,374.49c-3.24-7.75-19.2-17.86-27.61-19.6-6.81-1.41-10.49,13.89-10.72,28.21-.23,14.33-2.36,28.96,1.87,23.67,15.22-19.01,29.73-16.36,36.75-23.41,0,0,1.3-5.09-.29-8.87h0Z"/>
  <path class="st2" d="M275.94,373.7s-7.13-18.32-11.94-22.68c-4.81-4.36-24.22-10.08-24.22-10.08l18.27,18.01,7.08,14.36,3.87,2.69,6.94-2.31h0Z"/>
  <polygon class="st2" points="270.89 356.85 275.94 348.55 281.01 344.49 283.26 358.46 282.96 374.03 276.49 373.96 270.89 356.85"/>
  <path class="st2" d="M287.36,380.96s28.17-27.33,40.07-25.65c11.14,1.58.36,57.01.36,57.01,0,0-12.34-17.77-18.06-21.62l-22.37-9.73v-.02Z"/>
  <polygon class="st2" points="282.96 374.03 287.33 381.32 283.26 387.21 267.32 386.2 266.59 375.99 282.96 374.03"/>
  <path class="st2" d="M261.16,405.14s-1.81-5.84,1.13-10.42c2.94-4.58,10.64-7.9,13.65-7.97s10.22,2.58,13.37,6.81c3.66,4.93,2.94,11.58,2.94,11.58"/>
  <ellipse class="st5" cx="255.3" cy="423.49" rx="6.48" ry="6.23"/>
  <ellipse class="st5" cx="300.6" cy="423.07" rx="7" ry="6.72"/>
  <path class="st5" d="M330.46,453.32c-4.42-13.32-10.34-26.47-19.59-37.24-3.13-3.57-9.31-6.89-13.77-3.57-2.21,1.63-4.04,3.94-5.74,6.28.95-2.73,2.35-5.35,4.48-7.62,2.1-2.51,6.26-3.02,9.33-2.18,14.27,2.95,25.33,31.58,25.29,44.33h0Z"/>
  <path class="st5" d="M224.68,449.71c3.09-12.9,7.9-26.36,17.79-36,2.14-1.96,5.45-3.3,8.33-3.39,2.94-.26,6.22-.18,8.72,1.61,2.38,1.83,3.76,4.3,4.6,6.83-1.56-2.16-3.41-4.23-5.61-5.31-3.01-1.45-7.7-.44-10.76.73-3.24,1.81-5.53,4.89-7.65,7.93-5.19,7.46-11.04,19.49-15.43,27.61h0v-.02Z"/>
  <path class="st5" d="M267.17,438.61c-.46,1.39.97,3.98,2.94,5.95,2.14,2.16,4.86,3.68,4.86,3.68l5.02-.15s1.53-.77,3.22-2.22c2.29-1.96,4.92-4.95,4.58-6.58-.19-.92-.88-2.38-2.27-3.06-2.65-1.3-6.94-1.39-8.79-1.15,0,0-4.29.2-7.11,1.25-1.39.51-2.17,1.48-2.44,2.25v.02Z"/>
  <g>
    <line class="st0" x1="277.45" y1="444.01" x2="277.94" y2="470.26"/>
    <path class="st5" d="M277.45,444.01c1.72,2,2.25,4.03,2.02,6.54l.11,6.56c.04,2.16.15,7.75.17,9.84-.55,1.1-1.11,2.2-1.85,3.32-.78-1.08-1.37-2.16-1.96-3.24-.04-2.07-.13-7.71-.17-9.84l-.11-6.56c-.31-2.49.15-4.54,1.79-6.59h0v-.02Z"/>
  </g>
  <path class="st2" d="M266.19,458.39s-.15,9.65,2.65,15.88c2.21,4.93,7,6.78,9.96,6.74s7.69-3,9.78-8.02c2.56-6.14,1.51-15.15,1.51-15.15"/>
  <path class="st2" d="M257.31,455.7c0,1.96,5.95,1.47,7.99,1.45,3.17-.04,12.36-2.49,12.36-2.49,0,0,7.55,2.31,10.16,2.49s10.36,1.1,10.36-1.41"/>
  <path class="st5" d="M228.89,407.87c-1.33,6.19-3.59,15.08-5.21,20.92-.9,6.74,2.73,13.89,3.03,20.97.53,8.24-.34,16.23,1.6,23.91,2.06,5.31,6.85,11.87,9.23,15.9l5.85,6.52c2.02,2.14,3.91,4.34,5.51,6.8l-.46-.33c3.09,1.94,6.16,3.94,9.19,5.99-3.57-1.14-7.11-2.29-10.62-3.54-2.4-1.98-4.54-4.18-6.52-6.52l-5.85-6.52-.1-.11c-3.45-5.64-7.48-10.97-9.9-17.13-2.17-8.19-1.24-16.82-1.77-24.73-.38-6.08-3.01-12.47-3.22-18.79.27-8.63,5.15-16.14,9.23-23.34h0Z"/>
  <path class="st5" d="M329.03,409.68c11.1,12.58,7.34,28.61,4.77,42.22-.38,6.48-.67,12.71-1.98,19.18-1.91,6.37-5.68,11.74-8.91,17.49-3.51,4.96-8.51,11.82-11.92,16.76-4.67,2.49-9.67,4.89-14.47,7.14,3.85-3.37,7.97-6.87,12-10.08l-.51.49c3.43-4.62,8.26-11.54,11.69-16.29,2.61-4.67,6.71-10.77,8.41-16.34,1.2-5.95,1.53-12.42,1.89-18.54,1.2-6.92,2.77-14.36,2.86-21.3-.65-7.03-.95-14.03-3.81-20.77h0v.02Z"/>
  <path class="st5" d="M259.52,456.05c-2.35,5.33-4.56,7.75-7.25,12.22-5.11,10.06-5.09,22.93,1.62,32.37.86,2.18,1.95,4.34,3.18,6.54-2.33-1.15-4.39-2.71-6.35-4.47-9.96-13.68-7.59-38.45,8.77-46.66h.02Z"/>
  <path class="st5" d="M298.18,455.72c4.04,3.48,6.66,7.79,8.52,12.62,1.47,3.41,3.26,7.71,2.96,11.39l-.04,3.76-.1,3.72c0,3.9-1.72,7.9-3.34,11.34-2.04,4.8-5,8.96-9.23,12.2l2.31-7.25c2.8-5.17,6.18-10.46,6.45-16.36l.1-3.7.04-3.66c.19-3.79-1.3-6.54-2.65-9.98-2.25-4.52-4.16-8.99-5-14.03h0l-.02-.04Z"/>
  <ellipse class="st1" cx="277.1" cy="424.21" rx="117.86" ry="105.53"/>
  <line class="st1" x1="343.05" y1="511.55" x2="434.36" y2="620.2"/>
  <g class="st4">
    <text class="st3" transform="translate(0 465.83) scale(1.04 1)"><tspan x="0" y="0">W</tspan></text>
  </g>
  <g class="st4">
    <text class="st3" transform="translate(411.23 465.83) scale(1.04 1)"><tspan x="0" y="0">OFINDER</tspan></text>
  </g>
</svg>