<?xml version="1.0" encoding="UTF-8"?>
<svg id="Layer_4" data-name="Layer 4" xmlns="http://www.w3.org/2000/svg" viewBox="0 0 655.68 500">
  <defs>
    <style>
      .cls-1 {
        fill: #69c9d0;
      }

      .cls-2 {
        fill: #fff;
      }

      .cls-3 {
        fill: #ee1d52;
      }
    </style>
  </defs>
  <path d="M111.49,0h428.11c23.13,0,41.88,18.32,41.88,40.91v418.18c0,22.59-18.75,40.91-41.88,40.91H111.49c-23.13,0-41.88-18.32-41.88-40.91V40.91C69.6,18.32,88.36,0,111.49,0Z"/>
  <path class="cls-3" d="M195.01,311.44l1.02,2.87c-.13-.31-.51-1.31-1.02-2.87ZM236.54,245.88c1.86-15.56,8.13-24.25,19.9-33.19,16.89-12.06,37.94-5.25,37.94-5.25v-40.56c5.12-.13,10.24.19,15.29.94v52.19s-21.05-6.81-37.94,5.25c-11.77,8.94-18.04,17.63-19.9,33.19-.06,8.44,1.47,19.5,8.64,29-1.79-.94-3.58-2-5.44-3.19-15.68-10.75-18.56-26.94-18.49-38.37ZM396.76,91.88c-11.58-12.94-16-26.06-17.6-35.25h14.59s-2.88,24.12,18.3,47.81l.32.31c-5.76-3.62-11.01-8-15.61-12.87h0ZM467.08,128.63v51.12s-18.62-.75-32.44-4.31c-19.26-5-31.61-12.69-31.61-12.69,0,0-8.57-5.5-9.21-5.88v105.62c0,5.88-1.6,20.56-6.4,32.81-6.27,16-16,26.56-17.79,28.69,0,0-11.84,14.25-32.63,23.81-18.75,8.62-35.26,8.44-40.18,8.62,0,0-28.47,1.13-54.13-15.81-5.57-3.75-10.75-8-15.48-12.69l.13.13c25.66,17,54.13,15.81,54.13,15.81,4.93-.19,21.43,0,40.18-8.63,20.79-9.56,32.63-23.81,32.63-23.81,1.79-2.13,11.52-12.69,17.79-28.69,4.8-12.25,6.4-26.94,6.4-32.81v-105.56c.7.38,9.21,5.88,9.21,5.88,0,0,12.35,7.69,31.61,12.69,13.82,3.56,32.44,4.31,32.44,4.31v-40.06c6.4,1.44,11.84,1.81,15.36,1.44Z"/>
  <path class="cls-2" d="M451.72,127.12v40.06s-18.62-.75-32.44-4.31c-19.26-5-31.61-12.69-31.61-12.69,0,0-8.57-5.5-9.21-5.88v105.63c0,5.88-1.6,20.56-6.4,32.81-6.27,16-16,26.56-17.79,28.69,0,0-11.84,14.25-32.63,23.81-18.75,8.63-35.26,8.44-40.18,8.63,0,0-28.47,1.12-54.13-15.81l-.13-.13c-2.69-2.69-5.25-5.5-7.61-8.44-8.19-10.19-13.18-22.19-14.46-25.62v-.06c-2.05-5.94-6.27-20.31-5.69-34.12,1.02-24.44,9.47-39.5,11.71-43.25,5.89-10.25,13.63-19.44,22.71-27.13,8.06-6.63,17.21-11.94,27-15.63,10.62-4.38,22.01-6.69,33.53-6.87v40.56s-21.05-6.81-37.94,5.25c-11.77,8.94-18.04,17.63-19.9,33.19-.06,11.44,2.82,27.62,18.56,38.44,1.86,1.19,3.65,2.25,5.44,3.19,2.75,3.62,6.08,6.81,9.92,9.44,15.42,9.94,28.28,10.63,44.79,4.19,11.01-4.31,19.26-14,23.1-24.81,2.43-6.75,2.37-13.5,2.37-20.5V56.63h38.39c1.6,9.19,5.95,22.31,17.6,35.25,4.67,4.87,9.92,9.25,15.61,12.87,1.66,1.81,10.3,10.56,21.43,16,5.69,2.81,11.77,4.94,17.98,6.37h0Z"/>
  <g>
    <path class="cls-1" d="M189.83,281.5l.96,2.69c-.13-.31-.51-1.25-.96-2.69Z"/>
    <path class="cls-1" d="M260.85,173.75c-9.85,3.69-18.94,9-27,15.63-9.15,7.69-16.83,16.94-22.71,27.19-2.24,3.75-10.69,18.75-11.71,43.25-.58,13.88,3.71,28.19,5.69,34.13v.06c1.28,3.37,6.27,15.44,14.46,25.62,2.37,2.94,4.93,5.75,7.61,8.44-8.7-5.88-16.38-12.94-22.97-21-8.13-10.06-13.12-22-14.4-25.5v-.13c-2.05-5.94-6.33-20.31-5.69-34.19,1.02-24.44,9.47-39.5,11.71-43.25,5.89-10.25,13.56-19.5,22.71-27.19,8.06-6.63,17.21-11.94,27-15.63,6.14-2.5,12.54-4.31,19.07-5.5,9.85-1.69,19.9-1.81,29.82-.44v11.63c-11.58.19-22.97,2.5-33.59,6.87h0Z"/>
    <path class="cls-1" d="M379.16,56.63h-38.39v199.13c0,7,0,13.75-2.37,20.5-3.9,10.75-12.16,20.5-23.1,24.81-16.51,6.5-29.43,5.75-44.79-4.19-3.84-2.56-7.17-5.75-9.92-9.37,13.12,6.81,24.83,6.69,39.35,1,11.01-4.31,19.26-14.06,23.1-24.81,2.43-6.75,2.37-13.5,2.37-20.5V44.06h53.04c-.06,0-.64,4.94.7,12.56ZM451.72,116.06v11.06c-6.21-1.44-12.29-3.56-17.98-6.37-11.07-5.38-19.71-14.19-21.43-16,1.98,1.25,3.97,2.38,6.08,3.44,13.56,6.56,26.81,8.56,33.34,7.88Z"/>
  </g>
  <path class="cls-1" d="M380.44,434.25c0,1.44.19,2.81.64,4.19,0,.13.06.19.06.31,2.11,6.62,8.38,11.12,15.48,11.12v16c-8,0-13.69.25-22.39-4.75-9.85-5.75-15.42-16.19-15.42-27.06s6.21-22.44,16.83-27.87c7.68-3.94,13.5-3.94,21.05-3.94v16c-8.96,0-16.19,7.06-16.19,15.81l-.06.19Z"/>
  <path class="cls-3" d="M412.94,434.25c0,1.44-.19,2.81-.64,4.19,0,.13-.06.19-.06.31-2.11,6.62-8.38,11.12-15.48,11.12v16c7.93,0,13.69.25,22.33-4.75,9.92-5.75,15.48-16.19,15.48-27.06s-6.21-22.44-16.83-27.87c-7.68-3.94-13.5-3.94-21.05-3.94v16c8.96,0,16.19,7.06,16.19,15.81v.19h.06Z"/>
  <path class="cls-2" d="M146.07,387.75h59.95l-5.57,16.13h-15.68v61.69h-19.26v-61.69h-19.45v-16.13ZM305,387.75v16.13h19.45v61.69h19.32v-61.69h15.68l5.57-16.13h-60.02ZM219.07,406.06c5.18,0,9.34-4.06,9.34-9.13s-4.16-9.12-9.34-9.12-9.34,4.06-9.34,9.12,4.16,9.13,9.34,9.13ZM209.73,465.5h18.94v-53h-18.94v53ZM296.75,405.63h-22.14l-19.07,18.62v-36.5h-18.81l-.06,77.69h19v-20.25l5.89-5.25,18.43,25.5h20.28l-26.68-37.25,23.16-22.56ZM478.34,428.25l23.16-22.62h-22.14l-19.07,18.62v-36.5h-18.81l-.13,77.75h19v-20.25l5.95-5.25,18.43,25.5h20.28l-26.68-37.25ZM429.64,434c0,17.56-14.78,31.81-33.02,31.81s-33.02-14.25-33.02-31.81,14.78-31.81,33.02-31.81,33.02,14.25,33.02,31.81ZM412.82,434c0-8.75-7.23-15.81-16.19-15.81s-16.19,7.06-16.19,15.81,7.23,15.81,16.19,15.81,16.19-7.06,16.19-15.81Z"/>
</svg>