<?xml version="1.0" encoding="UTF-8"?>
<svg id="Layer_4" data-name="Layer 4" xmlns="http://www.w3.org/2000/svg" xmlns:xlink="http://www.w3.org/1999/xlink" viewBox="0 0 352.97 200">
  <defs>
    <style>
      .cls-1 {
        fill: url(#linear-gradient);
      }

      .cls-2 {
        fill: #fff;
      }
    </style>
    <linearGradient id="linear-gradient" x1="102.35" y1="-264.54" x2="279.66" y2="-87.23" gradientTransform="translate(-33.44 -91) rotate(90)" gradientUnits="userSpaceOnUse">
      <stop offset="0" stop-color="#4676ed"/>
      <stop offset=".19" stop-color="#436de4"/>
      <stop offset=".49" stop-color="#3b54cd"/>
      <stop offset=".87" stop-color="#2f2da8"/>
      <stop offset="1" stop-color="#2b1e99"/>
    </linearGradient>
  </defs>
  <path class="cls-1" d="M33.04,52.32C33.04,23.54,58.8,0,90.28,0h104.34C226.11,0,251.86,23.54,251.86,52.32v95.37c0,28.77-25.76,52.32-57.24,52.32h-35.08l-18.37-4.09-15.82,4.09h-35.08c-31.48,0-57.24-23.54-57.24-52.32"/>
  <path class="cls-2" d="M177.1,108.91l4.13-23.39h-25.85v-15.18c0-6.4,3.61-12.63,15.19-12.63h11.76v-19.91s-10.67-1.58-20.87-1.58c-21.29,0-35.21,11.2-35.21,31.48v17.82h-23.67v23.39h23.67v54.86h29.13v-54.86h21.72Z"/>
</svg>