<?xml version="1.0" encoding="UTF-8"?>
<svg id="Layer_3" data-name="Layer 3" xmlns="http://www.w3.org/2000/svg" xmlns:xlink="http://www.w3.org/1999/xlink" viewBox="0 0 357.63 200">
  <defs>
    <style>
      .cls-1 {
        fill: #fff;
      }

      .cls-2 {
        fill: url(#Degradado_sin_nombre_7);
      }
    </style>
    <linearGradient id="Degradado_sin_nombre_7" data-name="Degradado sin nombre 7" x1="115.38" y1="-263.95" x2="311.12" y2="-68.21" gradientTransform="translate(-33.46 266.08)" gradientUnits="userSpaceOnUse">
      <stop offset="0" stop-color="red"/>
      <stop offset="1" stop-color="#850000"/>
    </linearGradient>
  </defs>
  <rect class="cls-2" x="79.79" y="-.23" width="200" height="200.46" rx="7.65" ry="7.65" transform="translate(279.79 -79.78) rotate(90)"/>
  <path class="cls-1" d="M233.45,85.46c0-13.26-10.78-24.01-24.07-24.01h-61.54c-13.29,0-24.07,10.75-24.07,24.01v28.57c0,13.26,10.78,24.01,24.07,24.01h61.54c13.29,0,24.07-10.75,24.07-24.01v-28.57ZM197.25,101.89l-27.6,13.62c-1.08.58-4.76-.2-4.76-1.43v-27.96c0-1.24,3.71-2.02,4.79-1.41l26.42,14.34c1.11.63,2.27,2.23,1.15,2.83Z"/>
</svg>